<?xml version="1.0" encoding="utf-8"?>
<!-- Generated by IcoMoon.io -->
<!DOCTYPE svg PUBLIC "-//W3C//DTD SVG 1.1//EN" "http://www.w3.org/Graphics/SVG/1.1/DTD/svg11.dtd">
<svg version="1.1" xmlns="http://www.w3.org/2000/svg" xmlns:xlink="http://www.w3.org/1999/xlink" viewBox="0 0 21 32">
	<path d="M16.571 6.857q1.661 0 2.83 1.17t1.17 2.83v12.571q0 1.643-1.17 2.821t-2.83 1.179h-12.571q-1.661 0-2.83-1.179t-1.17-2.821v-12.571q0-1.661 1.17-2.83t2.83-1.17h12.571zM18.286 23.429v-12.571q0-0.714-0.5-1.214t-1.214-0.5h-12.571q-0.714 0-1.214 0.5t-0.5 1.214v12.571q0 0.714 0.5 1.214t1.214 0.5h12.571q0.714 0 1.214-0.5t0.5-1.214zM15.429 16q0.25 0 0.411 0.161t0.161 0.411v1.143q0 0.25-0.161 0.411t-0.411 0.161h-10.286q-0.25 0-0.411-0.161t-0.161-0.411v-1.143q0-0.25 0.161-0.411t0.411-0.161h10.286z" fill="#000000" />
</svg>
