<?xml version="1.0" encoding="UTF-8" standalone="no"?>
<svg width="33px" height="32px" viewBox="0 0 33 32" version="1.1" xmlns="http://www.w3.org/2000/svg" xmlns:xlink="http://www.w3.org/1999/xlink" xmlns:sketch="http://www.bohemiancoding.com/sketch/ns">
    <!-- Generator: Sketch 3.0.3 (7891) - http://www.bohemiancoding.com/sketch -->
    <title>icon_8017</title>
    <desc>Created with Sketch.</desc>
    <defs></defs>
    <g id="Page-1" stroke="none" stroke-width="1" fill="none" fill-rule="evenodd" sketch:type="MSPage">
        <g id="icon_8017" sketch:type="MSLayerGroup" fill="#333333">
            <g id="Group" sketch:type="MSShapeGroup">
                <path d="M27.8888602,14.7912381 L27.1005591,14.7912381 L27.1005591,2.41485714 C27.1005591,1.11542857 26.1450323,0.0605714286 24.9747957,0.0605714286 L7.37204301,0.0605714286 C6.20043011,0.0605714286 5.24627957,1.11580952 5.24627957,2.41485714 L5.24627957,14.7904762 L4.45969892,14.7904762 C2.06107527,14.7904762 0.0939354839,17.064381 0.0939354839,19.848 L0.0939354839,26.8807619 C0.0939354839,29.6651429 2.06141935,31.9386667 4.45969892,31.9386667 L27.8885161,31.9386667 C30.2854194,31.9386667 32.2504946,29.6647619 32.2504946,26.8807619 L32.2504946,19.8491429 C32.2504946,17.0647619 30.2854194,14.7912381 27.8888602,14.7912381 L27.8888602,14.7912381 Z M6.71724731,2.41485714 C6.71724731,2.01561905 7.01109677,1.68761905 7.37169892,1.68761905 L24.9744516,1.68761905 C25.3326452,1.68761905 25.6268387,2.01561905 25.6268387,2.41485714 L25.6268387,14.7904762 L6.71724731,14.7904762 L6.71724731,2.41485714 L6.71724731,2.41485714 Z M26.5138925,26.2933333 C26.444043,26.3485714 26.3779785,26.4198095 26.3177634,26.5142857 C26.2530753,26.6049524 26.191828,26.6845714 26.1333333,26.7508571 C26.0830968,26.8064762 26.0043011,26.8860952 25.8983226,26.992 C25.792,27.0948571 25.6884301,27.2064762 25.5831398,27.3074286 C25.4795699,27.4106667 25.3694624,27.5055238 25.2590108,27.592381 C25.1502796,27.6742857 25.0628817,27.7299048 24.9957849,27.7539048 C24.928,27.7657143 24.8430108,27.7619048 24.7483871,27.7299048 C24.6554839,27.7024762 24.556043,27.6628571 24.460043,27.6114286 C24.3633548,27.56 24.2632258,27.4967619 24.1603441,27.4419048 C24.0636559,27.3786667 23.9783226,27.3310476 23.9064086,27.2998095 C23.7887312,27.2289524 23.5623226,27.1173333 23.2388817,26.952381 C22.9123441,26.7828571 22.5782366,26.6121905 22.2396559,26.4308571 C21.900043,26.2575238 21.5817634,26.088 21.295828,25.9295238 C21.007828,25.7718095 20.8409462,25.6609524 20.7886452,25.6064762 C20.6024946,25.4049524 20.4947957,25.1474286 20.4621075,24.84 C20.4297634,24.5310476 20.4215054,24.224 20.4376774,23.912 C20.448,23.599619 20.4621075,23.3070476 20.4693333,23.0430476 C20.4765591,22.7744762 20.4249462,22.5737143 20.3148387,22.4544762 C20.2147097,22.3428571 20.0526452,22.2529524 19.824172,22.1851429 C19.5943226,22.1150476 19.4143656,22.064 19.279828,22.0205714 C18.1298925,21.679619 17.0332903,21.5146667 15.9931183,21.5264762 C14.9522581,21.5310476 13.848086,21.711619 12.6854194,22.0674286 C12.5467527,22.1074286 12.3606022,22.1580952 12.1376344,22.2133333 C11.9115699,22.2689524 11.7422796,22.36 11.6266667,22.4902857 C11.5103656,22.616 11.4604731,22.8460952 11.4745806,23.1889524 C11.4818065,23.5325714 11.5103656,23.8921905 11.5513118,24.2788571 C11.5926022,24.6575238 11.6125591,25.024381 11.6173763,25.3809524 C11.6173763,25.7314286 11.5495914,25.9851429 11.4174624,26.1310476 C11.3675699,26.1866667 11.1824516,26.2693333 10.8596989,26.376 C10.5386667,26.4830476 10.1887312,26.5904762 9.81264516,26.7032381 C9.43449462,26.8179048 9.06150538,26.920381 8.69608602,27.0148571 C8.32929032,27.1093333 8.08670968,27.1779048 7.96662366,27.2247619 C7.83690323,27.256 7.65832258,27.312 7.4288172,27.3950476 C7.20206452,27.4739048 7.01316129,27.4807619 6.85797849,27.4339048 C6.82219355,27.4099048 6.75991398,27.3512381 6.67458065,27.256 C6.59475269,27.1687619 6.51010753,27.056 6.42477419,26.9287619 C6.33324731,26.7939048 6.24584946,26.656381 6.16051613,26.5024762 C6.07139785,26.3485714 5.99501075,26.1988571 5.92688172,26.0449524 C5.85531183,25.8944762 5.80197849,25.76 5.75724731,25.6415238 C5.65023656,25.3253333 5.62339785,24.9668571 5.66984946,24.5550476 C5.7107957,24.1405714 5.80610753,23.7344762 5.94855914,23.3264762 C6.09101075,22.9165714 6.26374194,22.5249524 6.46537634,22.1546667 C6.66356989,21.7824762 6.86486022,21.4872381 7.05754839,21.2735238 C7.45875269,20.8270476 7.90675269,20.4750476 8.40017204,20.2072381 C8.89909677,19.9424762 9.39664516,19.6895238 9.90554839,19.4529524 C10.7451183,19.0190476 11.6263226,18.7020952 12.5405591,18.4967619 C13.4537634,18.2921905 14.3738495,18.1893333 15.3028817,18.1702857 C16.2284731,18.1539048 17.1595699,18.2133333 18.0937634,18.3481905 C19.027957,18.4830476 19.9304946,18.6838095 20.7972473,18.9478095 C21.1272258,19.0350476 21.4957419,19.1531429 21.9089892,19.303619 C22.3194839,19.4582857 22.7261935,19.6190476 23.1287742,19.8095238 C23.5375484,19.9946667 23.9215484,20.2045714 24.2818065,20.4285714 C24.6365591,20.6540952 24.9390108,20.9032381 25.1857204,21.1718095 C25.4620215,21.48 25.7101075,21.8346667 25.9351398,22.2491429 C26.160172,22.6590476 26.3397849,23.0944762 26.4722581,23.552 C26.599914,24.0140952 26.6752688,24.4769524 26.6966022,24.9455238 C26.7169032,25.4049524 26.6563441,25.8579048 26.5138925,26.2933333 L26.5138925,26.2933333 Z" id="Shape"></path>
                <path d="M23.5843441,3.78933333 L8.83784946,3.78933333 C8.43113978,3.78933333 8.10322581,4.1607619 8.10322581,4.60266667 C8.10322581,5.05714286 8.43113978,5.41980952 8.83784946,5.41980952 L23.5843441,5.41980952 C23.9903656,5.41980952 24.3203441,5.05752381 24.3203441,4.60266667 C24.3203441,4.16 23.9903656,3.78933333 23.5843441,3.78933333 L23.5843441,3.78933333 Z" id="Shape"></path>
                <path d="M23.5843441,7.22857143 L8.83784946,7.22857143 C8.43113978,7.22857143 8.10322581,7.59542857 8.10322581,8.04609524 C8.10322581,8.4967619 8.43113978,8.85866667 8.83784946,8.85866667 L23.5843441,8.85866667 C23.9903656,8.85866667 24.3203441,8.4967619 24.3203441,8.04609524 C24.3203441,7.59542857 23.9903656,7.22857143 23.5843441,7.22857143 L23.5843441,7.22857143 Z" id="Shape"></path>
                <path d="M23.5843441,10.6712381 L8.83784946,10.6712381 C8.43113978,10.6712381 8.10322581,11.0346667 8.10322581,11.4849524 C8.10322581,11.9352381 8.43113978,12.2986667 8.83784946,12.2986667 L23.5843441,12.2986667 C23.9903656,12.2986667 24.3203441,11.9352381 24.3203441,11.4849524 C24.3203441,11.0346667 23.9903656,10.6712381 23.5843441,10.6712381 L23.5843441,10.6712381 Z" id="Shape"></path>
            </g>
        </g>
    </g>
</svg>