<?xml version="1.0" encoding="UTF-8" standalone="no"?>
<svg xmlns:sketch="http://www.bohemiancoding.com/sketch/ns">
    <title>Slice 1</title>
    <description>Created with Sketch (http://www.bohemiancoding.com/sketch)</description>
    <defs></defs>
    <g id="Page-1" stroke="none" stroke-width="1" fill="none" fill-rule="evenodd" sketch:type="MSPage">
        <path d="M25.879,5.879 L22.122,2.122 C20.955,0.955 18.651,0.001 17.001,0.001 L3.001,0.001 C1.351,0.001 0.001,1.351 0.001,3.001 L0.001,29.001 C0.001,30.651 1.351,32.001 3.001,32.001 L25.001,32.001 C26.651,32.001 28.001,30.651 28.001,29.001 L28.001,11.001 C28.001,9.351 27.046,7.046 25.88,5.88 L25.879,5.879 Z M18,4.236 C18.069,4.261 18.139,4.289 18.211,4.318 C18.775,4.552 19.167,4.823 19.293,4.949 L23.05,8.706 C23.176,8.832 23.447,9.223 23.681,9.788 C23.711,9.86 23.738,9.931 23.763,9.999 L17.999,9.999 L17.999,4.235 L18,4.236 Z M24,28 L4,28 L4,4 L16,4 L16,12 L24,12 L24,28 L24,28 Z M6,16 L22,16 L22,18 L6,18 L6,16 Z M6,20 L22,20 L22,22 L6,22 L6,20 Z M6,24 L22,24 L22,26 L6,26 L6,24 Z" id="Shape" fill="#003366" sketch:type="MSShapeGroup"></path>
    </g>
</svg>
