<?xml version="1.0" encoding="UTF-8" standalone="no"?>
<svg width="34px" height="33px" viewBox="0 0 34 33" version="1.1" xmlns="http://www.w3.org/2000/svg" xmlns:xlink="http://www.w3.org/1999/xlink" xmlns:sketch="http://www.bohemiancoding.com/sketch/ns">
    <!-- Generator: Sketch 3.0.3 (7891) - http://www.bohemiancoding.com/sketch -->
    <title>Phone</title>
    <desc>Created with Sketch.</desc>
    <defs></defs>
    <g id="Page-1" stroke="none" stroke-width="1" fill="none" fill-rule="evenodd" sketch:type="MSPage">
        <g id="icon_52971" sketch:type="MSLayerGroup" transform="translate(1.000000, 0.000000)" fill="#333333">
            <path d="M31.2674699,24.9244444 L31.0746988,24.5688889 C30.5349398,23.3955556 23.9036145,21.6177778 23.3638554,21.5822222 L22.939759,21.6177778 C22.1301205,21.76 21.2433735,22.4355556 19.5084337,23.8222222 C19.1614458,24.1066667 18.6987952,24.1777778 18.2746988,23.9644444 C16,22.7911111 13.2240964,20.4444444 11.8361446,19.0222222 C10.3325301,17.4933333 8.52048193,14.9688889 7.67228916,12.9422222 C7.51807229,12.5511111 7.67228916,12.1244444 7.98072289,11.84 C9.94698795,10.2044444 10.7951807,9.42222222 10.8722892,8.56888889 C10.9108434,8.07111111 9.75421687,1.77777778 8.55903614,1.17333333 L8.21204819,0.96 C7.44096386,0.497777778 6.28433735,-0.177777778 5.01204819,0.0711111111 C4.70361446,0.142222222 4.39518072,0.248888889 4.1253012,0.391111111 C3.27710843,0.888888889 1.15662651,2.24 0.192771084,3.98222222 C-0.385542169,5.08444444 -0.655421687,15.0755556 7.44096386,23.5022222 C15.460241,31.8577778 25.3686747,32.2133333 26.8337349,31.9288889 L26.8722892,31.9288889 L26.9879518,31.8933333 C28.9927711,31.2177778 30.6891566,29.4755556 31.3445783,28.7288889 C32.539759,27.4133333 31.7301205,25.8133333 31.2674699,24.9244444 L31.2674699,24.9244444 Z" id="Phone" sketch:type="MSShapeGroup"></path>
        </g>
    </g>
</svg>