<?xml version="1.0" encoding="UTF-8" standalone="no"?>
<svg xmlns:sketch="http://www.bohemiancoding.com/sketch/ns">
    <title>Slice 1</title>
    <description>Created with Sketch (http://www.bohemiancoding.com/sketch)</description>
    <defs></defs>
    <g id="Page-1" stroke="none" stroke-width="1" fill="none" fill-rule="evenodd" sketch:type="MSPage">
        <path d="M20.518,18.036 C20.518,17.7266667 20.405,17.4586667 20.179,17.232 L16.947,14 L20.179,10.768 C20.405,10.542 20.518,10.274 20.518,9.964 C20.518,9.64266667 20.405,9.369 20.179,9.143 L18.572,7.536 C18.346,7.31 18.0723333,7.197 17.751,7.197 C17.4416667,7.197 17.1736667,7.31 16.947,7.536 L13.715,10.768 L10.483,7.536 C10.257,7.31 9.989,7.197 9.679,7.197 C9.35766667,7.197 9.084,7.31 8.858,7.536 L7.251,9.143 C7.025,9.369 6.912,9.64266667 6.912,9.964 C6.912,10.2733333 7.025,10.5413333 7.251,10.768 L10.483,14 L7.251,17.232 C7.025,17.458 6.912,17.726 6.912,18.036 C6.912,18.3573333 7.025,18.631 7.251,18.857 L8.858,20.464 C9.084,20.69 9.35766667,20.803 9.679,20.803 C9.98833333,20.803 10.2563333,20.69 10.483,20.464 L13.715,17.232 L16.947,20.464 C17.173,20.69 17.441,20.803 17.751,20.803 C18.0723333,20.803 18.346,20.69 18.572,20.464 L20.179,18.857 C20.405,18.631 20.518,18.3573333 20.518,18.036 L20.518,18.036 Z M27.429,14 C27.429,16.488 26.816,18.7826667 25.59,20.884 C24.364,22.9853333 22.7003333,24.649 20.599,25.875 C18.4976667,27.101 16.203,27.714 13.715,27.714 C11.227,27.714 8.93233333,27.101 6.831,25.875 C4.72966667,24.649 3.066,22.9853333 1.84,20.884 C0.614,18.7826667 0.001,16.488 0.001,14 C0.001,11.512 0.614,9.21733333 1.84,7.116 C3.066,5.01466667 4.72966667,3.351 6.831,2.125 C8.93233333,0.899 11.227,0.286 13.715,0.286 C16.203,0.286 18.4976667,0.899 20.599,2.125 C22.7003333,3.351 24.364,5.01466667 25.59,7.116 C26.816,9.21733333 27.429,11.512 27.429,14 L27.429,14 Z" id="Shape" fill="#CC3300" sketch:type="MSShapeGroup"></path>
    </g>
</svg>
