<svg width="72" height="48" viewBox="0 0 72 48" xmlns="http://www.w3.org/2000/svg"><title>W3C®</title><g fill="none" fill-rule="evenodd"><path d="M0 0h72v48H0z"/><path d="M18.117 8.006l5.759 19.58 5.759-19.58h15.614v1.946L39.37 20.08c2.065.663 3.627 1.868 4.686 3.615 1.059 1.748 1.589 3.799 1.589 6.155 0 2.914-.775 5.363-2.324 7.348-1.549 1.985-3.555 2.978-6.017 2.978-1.854 0-3.469-.589-4.845-1.767-1.377-1.178-2.396-2.773-3.058-4.786l3.256-1.35c.477 1.218 1.106 2.178 1.887 2.879a3.993 3.993 0 0 0 2.76 1.052c1.112 0 2.052-.622 2.82-1.866.768-1.245 1.152-2.74 1.152-4.489 0-1.933-.411-3.429-1.231-4.488-.954-1.244-2.45-1.867-4.489-1.867h-1.588v-1.906l5.56-9.612h-6.712l-.382.65-8.163 27.548h-.397l-5.958-19.937-5.957 19.937h-.397L2.032 8.006h4.17l5.759 19.58 3.892-13.185-1.906-6.395h4.17z" fill="#005A9C"/><path d="M66.92 8.006c-.819 0-1.554.295-2.111.861-.591.6-.92 1.376-.92 2.178a3 3 0 0 0 .887 2.128 2.979 2.979 0 0 0 2.145.912c.793 0 1.562-.321 2.161-.903.574-.557.887-1.3.887-2.136 0-.811-.321-1.57-.878-2.136a3 3 0 0 0-2.171-.904zm2.643 3.065c0 .701-.271 1.351-.768 1.832a2.671 2.671 0 0 1-1.892.777 2.59 2.59 0 0 1-1.84-.785 2.626 2.626 0 0 1-.777-1.849c0-.692.287-1.368.802-1.891a2.54 2.54 0 0 1 1.84-.751c.726 0 1.376.271 1.883.785.49.489.752 1.147.752 1.882zm-2.559-1.807h-1.3v3.445h.65V11.24h.642l.701 1.469h.726l-.769-1.57c.498-.102.785-.439.785-.929 0-.625-.472-.946-1.435-.946zm-.118.422c.608 0 .886.169.886.591 0 .405-.278.549-.87.549h-.549v-1.14h.533z" fill="#000"/><g fill="#000"><path d="M62.807 7.825l.676 4.107-2.391 4.575s-.918-1.941-2.443-3.015c-1.285-.905-2.122-1.102-3.431-.832-1.681.347-3.587 2.357-4.419 4.835-.995 2.965-1.005 4.4-1.04 5.718-.056 2.113.277 3.362.277 3.362s-1.452-2.686-1.438-6.62c.009-2.808.451-5.354 1.75-7.867 1.143-2.209 2.842-3.535 4.35-3.691 1.559-.161 2.791.59 3.743 1.403 1 .854 2.01 2.721 2.01 2.721l2.356-4.696zM63.102 31.063s-1.057 1.889-1.715 2.617c-.659.728-1.837 2.01-3.292 2.651-1.455.641-2.218.762-3.656.624-1.437-.138-2.772-.97-3.24-1.317-.468-.347-1.664-1.369-2.34-2.322-.676-.953-1.733-2.859-1.733-2.859s.589 1.91.958 2.721c.212.467.864 1.894 1.789 3.136.863 1.159 2.539 3.154 5.086 3.604 2.547.451 4.297-.693 4.73-.97.433-.277 1.346-1.042 1.924-1.66.603-.645 1.174-1.468 1.49-1.962.231-.36.607-1.092.607-1.092l-.608-3.171z"/></g></g></svg>
