<?xml version="1.0" encoding="UTF-8"?>
<svg width="180px" height="180px" viewBox="0 0 180 180" version="1.1" xmlns="http://www.w3.org/2000/svg" xmlns:xlink="http://www.w3.org/1999/xlink">
    <!-- Generator: Sketch 41.2 (35397) - http://www.bohemiancoding.com/sketch -->
    <title>w3cwai-maskicon</title>
    <desc>Created with Sketch.</desc>
    <defs></defs>
    <g id="Page-1" stroke="none" stroke-width="1" fill="none" fill-rule="evenodd">
        <g id="W3C®_Icon" transform="translate(0.000000, 42.000000)" fill="#000000">
            <path d="M47.352,1.412 L64.307,59.055 L81.26,1.412 L127.224,1.412 L127.224,7.142 L109.917,36.958 C115.997,38.907 120.595,42.456 123.712,47.599 C126.831,52.745 128.392,58.783 128.392,65.72 C128.392,74.298 126.109,81.507 121.548,87.351 C116.987,93.195 111.083,96.119 103.835,96.119 C98.377,96.119 93.624,94.387 89.573,90.918 C85.519,87.449 82.519,82.754 80.571,76.828 L90.156,72.853 C91.56,76.439 93.412,79.265 95.712,81.328 C98.011,83.394 100.72,84.428 103.837,84.428 C107.108,84.428 109.878,82.596 112.138,78.934 C114.4,75.27 115.531,70.868 115.531,65.719 C115.531,60.028 114.322,55.623 111.908,52.506 C109.097,48.844 104.693,47.01 98.692,47.01 L94.018,47.01 L94.018,41.399 L110.385,13.102 L90.63,13.102 L89.506,15.016 L65.475,96.104 L64.306,96.104 L46.766,37.413 L29.23,96.104 L28.062,96.104 L0.006,1.408 L12.282,1.408 L29.235,59.051 L40.695,20.236 L35.084,1.41 L47.357,1.41 L47.357,1.406 L47.352,1.412 Z" id="Shape"></path>
            <path d="M175.97,0.881 L177.958,12.971 L170.919,26.44 C170.919,26.44 168.218,20.725 163.728,17.565 C159.947,14.901 157.482,14.321 153.628,15.116 C148.679,16.137 143.067,22.054 140.618,29.35 C137.688,38.077 137.659,42.303 137.555,46.182 C137.391,52.405 138.371,56.078 138.371,56.078 C138.371,56.078 134.096,48.172 134.137,36.592 C134.164,28.324 135.465,20.828 139.289,13.432 C142.654,6.928 147.656,3.024 152.096,2.565 C156.686,2.092 160.311,4.303 163.116,6.696 C166.057,9.212 169.032,14.706 169.032,14.706 L175.952,0.881 L175.97,0.881 Z" id="Shape"></path>
            <path d="M176.84,69.289 C176.84,69.289 173.729,74.852 171.791,76.994 C169.852,79.139 166.383,82.912 162.1,84.801 C157.817,86.688 155.571,87.041 151.336,86.637 C147.107,86.231 143.176,83.782 141.799,82.76 C140.422,81.738 136.901,78.731 134.91,75.924 C132.918,73.117 129.808,67.508 129.808,67.508 C129.808,67.508 131.54,73.131 132.628,75.518 C133.251,76.893 135.169,81.094 137.894,84.75 C140.435,88.16 145.369,94.033 152.867,95.359 C160.365,96.687 165.517,93.318 166.793,92.504 C168.066,91.69 170.754,89.438 172.457,87.615 C174.232,85.719 175.914,83.295 176.842,81.842 C177.524,80.779 178.631,78.627 178.631,78.627 L176.841,69.296 L176.84,69.289 Z" id="Shape"></path>
        </g>
    </g>
</svg>