<svg width="194" height="48" viewBox="0 0 194 48" xmlns="http://www.w3.org/2000/svg"><title>Web Accessibility Initiative</title><g fill="none" fill-rule="evenodd"><path fill="#005A9C" d="M0 0h194v48H0z"/><path d="M.5 27.5h193" stroke="#D77A00" stroke-linecap="square"/><path d="M29.592 6.629h2.332l-6.62 16.441h-.505L19.444 9.758 14.04 23.07h-.503L6.94 6.63h2.355l4.512 11.285L18.342 6.63h2.227l4.558 11.285L29.592 6.63zm11.599 11.168h-7.582c.054 1.031.4 1.851 1.037 2.46.636.61 1.459.915 2.467.915 1.406 0 2.703-.438 3.89-1.313v2.086c-.656.438-1.307.75-1.951.938-.645.187-1.4.281-2.268.281-1.187 0-2.148-.246-2.882-.738-.735-.492-1.323-1.155-1.764-1.987-.442-.832-.662-1.794-.662-2.888 0-1.64.465-2.975 1.394-4.002.93-1.028 2.137-1.541 3.621-1.541 1.43 0 2.57.5 3.422 1.5.852 1 1.278 2.34 1.278 4.02v.269zm-7.536-1.277h5.426c-.054-.852-.308-1.508-.761-1.97-.454-.46-1.063-.69-1.829-.69-.765 0-1.392.23-1.88.69-.489.462-.807 1.118-.956 1.97zm10.45-9.891h2.133v6.363c.922-.672 1.907-1.008 2.953-1.008 1.368 0 2.485.516 3.352 1.547.867 1.032 1.3 2.356 1.3 3.973 0 1.734-.517 3.115-1.552 4.142-1.035 1.028-2.42 1.541-4.154 1.541-.696 0-1.428-.074-2.198-.222-.77-.149-1.38-.336-1.834-.563V6.63zm2.133 8.402v5.836a7.722 7.722 0 0 0 2.239.328c.945 0 1.716-.336 2.314-1.008.598-.671.897-1.535.897-2.59 0-1.07-.28-1.94-.838-2.613-.559-.672-1.287-1.007-2.186-1.007-.797 0-1.605.351-2.426 1.054zm21.146-8.496h1.653L76.36 23h-2.402l-2.18-4.852h-6.961L62.755 23h-2.402l7.031-16.465zm3.434 9.527l-2.637-5.93-2.449 5.93h5.086zm15.84 4.418v2.11c-1.07.398-2.117.598-3.14.598-1.688 0-3.033-.5-4.037-1.5s-1.506-2.34-1.506-4.02c0-1.695.488-3.063 1.465-4.102.976-1.039 2.262-1.558 3.855-1.558.555 0 1.053.053 1.494.158.442.105.987.303 1.635.592v2.273c-1.078-.687-2.078-1.031-3-1.031-.96 0-1.75.338-2.367 1.014-.617.675-.926 1.537-.926 2.584 0 1.101.334 1.976 1.002 2.625.668.648 1.569.972 2.701.972.82 0 1.762-.238 2.825-.715zm11.212 0v2.11c-1.07.398-2.117.598-3.14.598-1.688 0-3.034-.5-4.037-1.5-1.004-1-1.506-2.34-1.506-4.02 0-1.695.488-3.063 1.465-4.102.976-1.039 2.261-1.558 3.855-1.558.555 0 1.053.053 1.494.158.442.105.986.303 1.635.592v2.273c-1.078-.687-2.078-1.031-3-1.031-.961 0-1.75.338-2.367 1.014-.617.675-.926 1.537-.926 2.584 0 1.101.334 1.976 1.002 2.625.668.648 1.568.972 2.701.972.82 0 1.762-.238 2.824-.715zm12.314-2.683h-7.582c.054 1.031.4 1.851 1.037 2.46.636.61 1.459.915 2.466.915 1.407 0 2.704-.438 3.891-1.313v2.086c-.656.438-1.307.75-1.951.938-.645.187-1.4.281-2.268.281-1.187 0-2.148-.246-2.882-.738-.735-.492-1.323-1.155-1.764-1.987-.442-.832-.662-1.794-.662-2.888 0-1.64.465-2.975 1.394-4.002.93-1.028 2.137-1.541 3.621-1.541 1.43 0 2.57.5 3.422 1.5.852 1 1.278 2.34 1.278 4.02v.269zm-7.536-1.277h5.426c-.054-.852-.308-1.508-.761-1.97-.454-.46-1.063-.69-1.829-.69-.765 0-1.392.23-1.88.69-.489.462-.807 1.118-.956 1.97zm10.017 5.707V19.93a9.72 9.72 0 0 0 1.846 1.025c.628.262 1.158.393 1.587.393.446 0 .829-.11 1.149-.328.32-.22.48-.48.48-.786 0-.312-.103-.572-.31-.779-.207-.207-.654-.506-1.342-.896-1.375-.766-2.275-1.42-2.701-1.963-.426-.543-.639-1.135-.639-1.776 0-.828.322-1.504.967-2.027.644-.523 1.475-.785 2.49-.785 1.055 0 2.137.297 3.246.89v2.11c-1.265-.766-2.3-1.149-3.105-1.149-.414 0-.748.088-1.002.264-.254.176-.381.408-.381.697 0 .25.115.489.346.715.23.227.634.5 1.213.82l.761.434c1.797 1.016 2.696 2.14 2.696 3.375 0 .883-.346 1.607-1.037 2.174-.692.566-1.58.85-2.666.85-.641 0-1.211-.069-1.711-.206-.5-.136-1.13-.388-1.887-.755zm9.934 0V19.93a9.72 9.72 0 0 0 1.846 1.025c.629.262 1.158.393 1.588.393.445 0 .828-.11 1.148-.328.32-.22.48-.48.48-.786 0-.312-.103-.572-.31-.779-.207-.207-.654-.506-1.342-.896-1.375-.766-2.275-1.42-2.7-1.963-.427-.543-.64-1.135-.64-1.776 0-.828.323-1.504.967-2.027.645-.523 1.475-.785 2.49-.785 1.055 0 2.137.297 3.247.89v2.11c-1.266-.766-2.301-1.149-3.106-1.149-.414 0-.748.088-1.002.264-.254.176-.38.408-.38.697 0 .25.115.489.345.715.23.227.635.5 1.213.82l.762.434c1.797 1.016 2.695 2.14 2.695 3.375 0 .883-.346 1.607-1.037 2.174-.692.566-1.58.85-2.666.85-.64 0-1.211-.069-1.711-.206-.5-.136-1.129-.388-1.887-.755zm11.563-14.543c.352 0 .653.12.903.363.25.242.375.539.375.89 0 .344-.125.641-.375.891s-.55.375-.903.375c-.328 0-.617-.127-.867-.38a1.223 1.223 0 0 1-.375-.886c0-.328.125-.619.375-.873.25-.253.54-.38.868-.38zm-1.054 4.535h2.133V23h-2.133V12.219zm5.82-5.59h2.134v6.363c.922-.672 1.906-1.008 2.953-1.008 1.367 0 2.484.516 3.351 1.547.868 1.032 1.301 2.356 1.301 3.973 0 1.734-.517 3.115-1.553 4.142-1.035 1.028-2.42 1.541-4.154 1.541-.695 0-1.428-.074-2.197-.222-.77-.149-1.381-.336-1.834-.563V6.63zm2.134 8.402v5.836a7.722 7.722 0 0 0 2.238.328c.945 0 1.717-.336 2.314-1.008.598-.671.897-1.535.897-2.59 0-1.07-.28-1.94-.838-2.613-.559-.672-1.287-1.007-2.185-1.007-.797 0-1.606.351-2.426 1.054zm11.762-7.347c.352 0 .653.12.903.363.25.242.375.539.375.89 0 .344-.125.641-.375.891s-.551.375-.903.375c-.328 0-.617-.127-.867-.38a1.223 1.223 0 0 1-.375-.886c0-.328.125-.619.375-.873.25-.253.54-.38.867-.38zm-1.054 4.535h2.132V23h-2.132V12.219zm5.961-5.59h2.133V23h-2.133V6.629zm7.017 1.055c.351 0 .652.12.902.363.25.242.375.539.375.89 0 .344-.125.641-.375.891s-.55.375-.902.375c-.328 0-.618-.127-.868-.38a1.223 1.223 0 0 1-.375-.886c0-.328.125-.619.375-.873.25-.253.54-.38.868-.38zm-1.055 4.535h2.133V23h-2.133V12.219zm4.403 1.71l4.008-3.937v2.227h3.41v1.922h-3.41v5.285c0 1.234.512 1.851 1.535 1.851.766 0 1.574-.257 2.426-.773v1.992c-.82.461-1.715.692-2.684.692-.976 0-1.789-.286-2.437-.856a2.437 2.437 0 0 1-.504-.58 3.082 3.082 0 0 1-.334-.844c-.09-.347-.135-1.01-.135-1.986V14.14h-1.875v-.211zm16.802-1.71h2.402l-7.629 16.277h-2.379l3.668-7.805-4.172-8.472h2.426l2.906 6.082 2.778-6.082zm-82.085 17.465c.351 0 .652.12.902.363.25.242.375.539.375.89 0 .344-.125.641-.375.891s-.55.375-.903.375c-.328 0-.617-.127-.867-.38a1.223 1.223 0 0 1-.375-.886c0-.328.125-.619.375-.873.25-.253.54-.38.868-.38zm-1.055 4.535h2.133V45h-2.133V34.219zm8.047 0v1.37c.954-1.054 2.036-1.581 3.247-1.581.671 0 1.296.174 1.875.521a3.4 3.4 0 0 1 1.318 1.43c.3.605.451 1.564.451 2.877V45h-2.133v-6.14c0-1.102-.168-1.89-.504-2.362-.336-.473-.898-.709-1.687-.709-1.008 0-1.863.504-2.567 1.512V45h-2.18V34.219h2.18zm11.67-4.535c.35 0 .652.12.902.363.25.242.375.539.375.89 0 .344-.125.641-.375.891s-.551.375-.903.375c-.328 0-.617-.127-.867-.38a1.223 1.223 0 0 1-.375-.886c0-.328.125-.619.375-.873.25-.253.54-.38.867-.38zm-1.055 4.535h2.132V45h-2.132V34.219zm4.403 1.71l4.007-3.937v2.227h3.41v1.922h-3.41v5.285c0 1.234.512 1.851 1.536 1.851.765 0 1.574-.257 2.425-.773v1.992c-.82.461-1.714.691-2.683.691-.977 0-1.79-.285-2.438-.855a2.437 2.437 0 0 1-.504-.58 3.082 3.082 0 0 1-.334-.844c-.09-.347-.134-1.01-.134-1.986V36.14h-1.875v-.211zm11.305-6.245c.352 0 .652.12.902.363.25.242.375.539.375.89 0 .344-.125.641-.375.891s-.55.375-.902.375c-.328 0-.617-.127-.867-.38a1.223 1.223 0 0 1-.375-.886c0-.328.125-.619.375-.873.25-.253.539-.38.867-.38zm-1.055 4.535h2.133V45h-2.133V34.219zm12.689 4.3v4.583c0 .367.125.55.375.55.258 0 .66-.191 1.207-.574v1.3c-.485.313-.873.526-1.166.64-.293.113-.6.17-.92.17-.914 0-1.453-.36-1.617-1.079-.907.704-1.871 1.055-2.895 1.055-.75 0-1.375-.248-1.875-.744s-.75-1.12-.75-1.87c0-.679.244-1.286.733-1.821.488-.536 1.181-.96 2.08-1.272l2.73-.937v-.575c0-1.297-.648-1.945-1.945-1.945-1.164 0-2.297.602-3.399 1.805v-2.332c.828-.977 2.02-1.465 3.575-1.465 1.164 0 2.097.304 2.8.914.235.195.446.455.633.78.188.323.307.648.358.972.05.324.076.94.076 1.846zm-2.098 4.348v-3.199l-1.43.55c-.726.29-1.24.58-1.54.874-.301.293-.452.658-.452 1.096 0 .445.143.808.428 1.09.285.28.654.421 1.107.421.68 0 1.309-.277 1.887-.832zm4.755-6.937l4.008-3.938v2.227h3.41v1.922h-3.41v5.285c0 1.234.511 1.851 1.535 1.851.765 0 1.574-.257 2.425-.773v1.992c-.82.461-1.714.691-2.683.691-.977 0-1.79-.285-2.438-.855a2.437 2.437 0 0 1-.504-.58 3.082 3.082 0 0 1-.333-.844c-.09-.347-.135-1.01-.135-1.986V36.14h-1.875v-.211zm11.305-6.246c.352 0 .653.12.903.363.25.242.375.539.375.89 0 .344-.125.641-.375.891s-.551.375-.903.375c-.328 0-.617-.127-.867-.38a1.223 1.223 0 0 1-.375-.886c0-.328.125-.619.375-.873.25-.253.54-.38.867-.38zm-1.054 4.535h2.132V45h-2.132V34.219zm12.512 0h2.309l-4.758 10.968h-.715l-4.875-10.968h2.332l2.906 6.633 2.801-6.633zm13.321 5.578h-7.582c.055 1.031.4 1.851 1.037 2.46.637.61 1.46.915 2.467.915 1.406 0 2.703-.438 3.89-1.313v2.086c-.656.438-1.306.75-1.95.938-.645.187-1.4.281-2.268.281-1.188 0-2.149-.246-2.883-.738s-1.322-1.155-1.764-1.987c-.441-.832-.662-1.794-.662-2.888 0-1.64.465-2.975 1.395-4.002.93-1.028 2.137-1.541 3.62-1.541 1.43 0 2.571.5 3.423 1.5.851 1 1.277 2.34 1.277 4.02v.269zm-7.535-1.277h5.426c-.055-.852-.309-1.508-.762-1.97-.453-.46-1.062-.69-1.828-.69s-1.393.23-1.881.69c-.488.462-.807 1.118-.955 1.97z" fill="#FFF"/></g></svg>
